<svg width="42" height="40" viewBox="0 0 42 40" fill="none" xmlns="http://www.w3.org/2000/svg">
<path d="M29.9413 29.4329L29.9507 22.4552C29.9507 19.0387 29.2416 16.4136 25.3792 16.4136C23.5227 16.4136 22.2819 17.4655 21.7688 18.4693H21.7128V16.7224H18.0557V29.4233H21.8621V23.1404C21.8621 21.4804 22.1699 19.8783 24.1478 19.8783C26.0976 19.8783 26.1349 21.7699 26.1349 23.2466V29.4329H29.9413Z" fill="#13A6BA"/>
<path d="M15.6766 16.7222H11.8608V29.423H15.6766V16.7222Z" fill="#13A6BA"/>
<path d="M13.764 10.4009C12.5419 10.4009 11.553 11.4239 11.553 12.6882C11.553 13.9525 12.5419 14.9948 13.764 14.9948C14.9862 14.9948 15.9751 13.9525 15.9751 12.6882C15.9751 11.4239 14.9862 10.4009 13.764 10.4009Z" fill="#13A6BA"/>
<rect x="0.833008" y="0.500977" width="40" height="39" stroke="#13A6BA"/>
</svg>
