<svg width="42" height="40" viewBox="0 0 42 40" fill="none" xmlns="http://www.w3.org/2000/svg">
<path d="M28.0638 10.4009H14.2691C12.9549 10.4009 11.8865 11.4083 11.8865 12.8657V27.1361C11.8865 28.5934 12.9549 29.6009 14.2691 29.6009H28.0638C29.3781 29.6009 30.4465 28.5934 30.4465 27.1361V12.8657C30.4465 11.4083 29.3781 10.4009 28.0638 10.4009ZM24.575 13.4036C24.575 12.9244 24.9532 12.5429 25.407 12.5429H27.506C27.9693 12.5429 28.338 12.9341 28.338 13.4036V15.4772C28.338 15.9565 27.9598 16.3379 27.506 16.3379H25.407C24.9437 16.3379 24.575 15.9467 24.575 15.4772V13.4036ZM21.1901 16.2303C23.2513 16.2303 24.9153 17.9029 24.9153 19.9666C24.9153 22.0304 23.2418 23.703 21.1901 23.703C19.1289 23.703 17.4649 22.0304 17.4649 19.9666C17.4649 17.9029 19.1289 16.2303 21.1901 16.2303ZM28.3475 26.6373C28.3475 27.0578 28.0166 27.4002 27.61 27.4002H14.6851C14.2786 27.4002 13.9476 27.0578 13.9476 26.6373V18.5191H15.6495C15.4982 19.0375 15.4132 19.595 15.4132 20.1623C15.4132 23.3606 17.9944 25.9428 21.1807 25.9428C24.367 25.9428 26.9482 23.3509 26.9482 20.1623C26.9482 19.595 26.8631 19.0375 26.7118 18.5191H28.3475V26.6373V26.6373Z" fill="#13A6BA"/>
<rect x="1.1665" y="0.500977" width="40" height="39" stroke="#13A6BA"/>
</svg>
