<svg width="41" height="40" viewBox="0 0 41 40" fill="none" xmlns="http://www.w3.org/2000/svg">
<path d="M29.2618 15.0422L29.273 15.6455C29.273 21.8417 24.7242 29.0009 16.4089 29.0009C13.8607 29.0009 11.4801 28.2235 9.47949 26.8775C9.82596 26.9239 10.1836 26.9471 10.5524 26.9471C12.676 26.9471 14.6207 26.1929 16.163 24.9281C14.1848 24.8933 12.5195 23.5358 11.9383 21.6676C12.2177 21.7256 12.4971 21.7489 12.7877 21.7489C13.2013 21.7489 13.6036 21.6908 13.9724 21.5864C11.9048 21.1571 10.3513 19.2658 10.3513 16.9915V16.9451C10.9548 17.2932 11.6477 17.5021 12.3965 17.5253C11.1895 16.6898 10.396 15.2394 10.396 13.6266C10.396 12.7679 10.6195 11.9557 11.0107 11.2595C13.2236 14.1023 16.5654 15.9588 20.3207 16.1561C20.2424 15.8196 20.2089 15.4599 20.2089 15.0886C20.2089 12.5011 22.2207 10.4009 24.7242 10.4009C26.0207 10.4009 27.2054 10.9694 28.0324 11.8745C29.0495 11.6656 30.0218 11.2827 30.9048 10.749C30.5695 11.8397 29.8542 12.7679 28.9154 13.3481C29.8318 13.2321 30.7036 12.9768 31.5195 12.6055C30.9048 13.5454 30.1336 14.3808 29.2618 15.0422Z" fill="#13A6BA"/>
<rect x="0.499512" y="0.500977" width="40" height="39" stroke="#13A6BA"/>
</svg>
